<svg width="64" height="64" viewBox="0 0 64 64" fill="none" xmlns="http://www.w3.org/2000/svg">
<path d="M17.4359 25.2717H40.2165L38.8614 16.3274C38.7613 15.6667 39.0718 15.0111 39.6465 14.6701C40.2213 14.3295 40.9453 14.3707 41.4773 14.7752L62.4089 30.6938C62.8169 31.0043 63.0564 31.4874 63.0564 32C63.0564 32.5126 62.8168 32.9958 62.4089 33.3063L41.4773 49.2248C41.1851 49.4468 40.8351 49.5595 40.4836 49.5595C40.1963 49.5595 39.9078 49.4841 39.6495 49.3316C39.0751 48.9926 38.7631 48.3396 38.8601 47.6798L40.2249 38.4H17.436C16.5299 38.4 15.877 37.6651 15.877 36.759V26.9129C15.8769 26.0066 16.5298 25.2717 17.4359 25.2717ZM19.159 35.118H42.1248C42.6016 35.118 43.0549 35.3256 43.3666 35.6865C43.6784 36.0474 43.8178 36.526 43.7484 36.9979L42.6925 44.177L58.7044 32L42.7128 19.8384L43.7473 26.667C43.819 27.1397 43.681 27.6202 43.369 27.9827C43.0574 28.3454 42.603 28.5539 42.1248 28.5539H19.1589V35.118H19.159Z" fill="white"/>
<path d="M5.31247 0H43.4682C44.2737 0 45 0.734875 45 1.641V8.20512C45 9.11125 44.2738 9.84612 43.4682 9.84612H9.69652V54.1539H43.4682C44.2737 54.1539 45 54.8888 45 55.7949V62.359C45 63.2651 44.2738 64 43.4682 64H5.31247C2.86325 64 0.943634 61.7915 0.943634 59.0769V4.92312C0.943634 2.2085 2.86325 0 5.31247 0ZM3.86123 59.0769C3.86123 59.9665 4.48628 60.7179 5.31247 60.7179H42.0823V57.4359H8.16472C7.3592 57.4359 6.77882 56.701 6.77882 55.7949V8.20512C6.77882 7.299 7.35909 6.56413 8.16472 6.56413H42.0823V3.282H5.31247C4.48628 3.282 3.86123 4.03337 3.86123 4.923V59.0769Z" fill="white"/>
</svg>
